<?xml version="1.0" encoding="UTF-8"?>
<svg id="Layer_2" data-name="Layer 2" xmlns="http://www.w3.org/2000/svg" viewBox="0 0 35.8 29.62">
  <defs>
    <style>
      .cls-1 {
        fill: #fff;
      }
    </style>
  </defs>
  <g id="Layer_2-2" data-name="Layer 2">
    <path class="cls-1" d="m35.78,7.28c-.13-.47-.61-.76-1.08-.63l-7.59,2c0-2.65,0-5.29,0-7.93,0-.23-.02-.46-.04-.71-.22.06-.41.09-.6.14-5.47,1.57-10.94,3.15-16.42,4.72q-.98.28-.98,1.31v7.22L.66,15.61c-.47.13-.76.61-.63,1.08.13.47.61.76,1.08.63l7.97-2.1v.02l2.44-.64v-.02l13.07-3.44v.02l2.51-.66v-.02l8.05-2.12c.47-.13.75-.61.63-1.08Zm-24.26,5.48v-1.11c0-.19.02-.37.02-.56,0-.35.18-.56.5-.67.13-.05.28-.1.41-.14,3.94-1.12,7.87-2.24,11.82-3.36.09-.02.2-.05.31-.08v2.49l-13.07,3.44Z"/>
    <path class="cls-1" d="m24.59,12.07v3.43c-.06,0-.08,0-.1,0-.17-.07-.35-.14-.52-.21-1.15-.48-2.33-.56-3.51-.2-2.8.87-4.28,3.73-3.41,6.53.63,2.04,2.66,3.54,4.76,3.56,2.91.02,5.32-2.2,5.31-5.31-.02-2.82-.02-5.64-.02-8.47l-2.51.67Z"/>
    <path class="cls-1" d="m11.52,15.51l-2.44.64v3.86c-.26-.1-.48-.2-.7-.28-1-.38-2.04-.57-3.09-.31-3.24.79-5.02,4.28-3.5,7.38,1.57,3.19,5.98,3.81,8.36,1.17.96-1.07,1.38-2.32,1.37-3.75-.02-2.9-.02-5.8,0-8.71Z"/>
  </g>
</svg>