<svg width="50" height="50" viewBox="0 0 50 50" fill="none" xmlns="http://www.w3.org/2000/svg">
<path d="M45.9722 17.2186C45.8438 16.7353 45.3542 16.4453 44.8725 16.5742L37.1346 18.6121C37.1346 15.9137 37.1426 13.2232 37.1426 10.5248C37.1426 10.2912 37.1185 10.0576 37.1025 9.7998C36.8777 9.85619 36.6851 9.88842 36.4924 9.94481C30.9137 11.5478 25.335 13.1588 19.7563 14.7618C18.761 15.0437 18.761 15.0437 18.761 16.0989C18.761 18.5557 18.761 21.0045 18.761 23.4613L10.1722 25.7168C9.69056 25.8456 9.40159 26.337 9.53002 26.8203C9.65845 27.3036 10.1481 27.5936 10.6297 27.4647L18.753 25.3221C18.753 25.3301 18.753 25.3301 18.753 25.3382L21.2413 24.6857C21.2413 24.6777 21.2413 24.6777 21.2413 24.6696L34.566 21.1576C34.566 21.1656 34.566 21.1656 34.566 21.1737L37.1266 20.497C37.1266 20.489 37.1266 20.489 37.1266 20.4809L45.3301 18.3221C45.8117 18.1933 46.0926 17.7019 45.9722 17.2186ZM21.2413 22.8008C21.2413 22.4222 21.2413 22.0436 21.2413 21.665C21.2413 21.4717 21.2573 21.2864 21.2654 21.0931C21.2734 20.7387 21.45 20.5212 21.7791 20.4084C21.9156 20.3601 22.06 20.3037 22.1965 20.2634C26.21 19.1196 30.2234 17.9838 34.2449 16.84C34.3412 16.8158 34.4456 16.7917 34.566 16.7594C34.566 17.6052 34.566 18.451 34.566 19.2968L21.2413 22.8008Z" fill="white"/>
<path d="M34.566 22.1002C34.566 23.2682 34.566 24.4282 34.566 25.5961C34.5098 25.5961 34.4858 25.6042 34.4617 25.5961C34.2851 25.5236 34.1085 25.4512 33.9319 25.3787C32.76 24.8873 31.5559 24.8067 30.3519 25.1773C27.4943 26.0633 25.9933 28.9793 26.8762 31.8389C27.5184 33.9171 29.5893 35.4476 31.7325 35.4637C34.7025 35.4879 37.1587 33.2244 37.1427 30.0506C37.1266 27.175 37.1266 24.2993 37.1266 21.4155L34.566 22.1002Z" fill="white"/>
<path d="M21.2411 25.6118L18.7528 26.2643C18.7528 27.4242 18.7528 28.5922 18.7528 29.7522C18.7528 29.8891 18.7528 30.026 18.7528 30.2032C18.4879 30.0985 18.2631 30.0019 18.0384 29.9133C17.019 29.5266 15.9594 29.3333 14.8918 29.5991C11.5847 30.4046 9.77064 33.965 11.3279 37.1226C12.9333 40.3769 17.4283 41.0052 19.8525 38.3148C20.8317 37.2273 21.2572 35.9466 21.2491 34.4886C21.2331 31.5323 21.2331 28.5761 21.2411 25.6118Z" fill="white"/>
</svg>
