<svg width="27" height="30" viewBox="0 0 27 30" fill="none" xmlns="http://www.w3.org/2000/svg">
<path d="M23.7313 15.5557C23.7313 12.6524 23.7313 9.765 23.7313 6.8537C23.6033 6.8854 23.5073 6.9092 23.4113 6.933C19.4113 8.0595 15.4113 9.178 11.4033 10.3044C11.2593 10.344 11.1233 10.3996 10.9873 10.4472C10.6593 10.5582 10.4833 10.7803 10.4753 11.1214C10.4673 11.3118 10.4513 11.4943 10.4513 11.6846C10.4513 15.8968 10.4433 20.109 10.4513 24.3212C10.4593 25.757 10.0353 27.0183 9.05929 28.0892C6.64329 30.7466 2.16329 30.1199 0.563286 26.9152C-0.988724 23.7977 0.819286 20.2994 4.11529 19.5062C5.17929 19.2523 6.23529 19.4427 7.25129 19.8155C7.47529 19.9028 7.69929 19.99 7.96329 20.1011C7.96329 19.9187 7.96329 19.7838 7.96329 19.6569C7.96329 15.175 7.96329 10.6931 7.96329 6.2032C7.96329 5.172 7.96329 5.172 8.95529 4.8864C14.5153 3.3078 20.0753 1.7213 25.6353 0.1428C25.8273 0.0872003 26.0193 0.0555 26.2433 0C26.2593 0.2617 26.2833 0.4918 26.2833 0.7139C26.2833 7.1234 26.2593 13.5409 26.2993 19.9504C26.3153 23.0758 23.8673 25.2969 20.9073 25.2811C18.7713 25.2652 16.7153 23.758 16.0673 21.7114C15.1873 18.8874 16.6833 16.0158 19.5313 15.1512C20.7313 14.7863 21.9313 14.8656 23.0993 15.3495C23.2753 15.4209 23.4513 15.4923 23.6273 15.5637C23.6513 15.5637 23.6753 15.5557 23.7313 15.5557Z" fill="white"/>
</svg>
