<?xml version="1.0" encoding="UTF-8"?>
<svg id="Layer_2" data-name="Layer 2" xmlns="http://www.w3.org/2000/svg" viewBox="0 0 36.5 31">
  <defs>
    <style>
      .cls-1, .cls-2 {
        fill: #859fcc;
      }

      .cls-2 {
        opacity: 0;
      }
    </style>
  </defs>
  <g id="Layer_3" data-name="Layer 3">
    <rect class="cls-2" width="36.5" height="31"/>
    <path class="cls-1" d="m36.47,8c-.13-.48-.61-.77-1.09-.64l-7.7,2.03c0-2.68,0-5.36,0-8.04,0-.23-.02-.46-.04-.72-.22.06-.42.09-.61.14-5.55,1.59-11.1,3.2-16.64,4.79q-.99.28-.99,1.33v7.32L.87,16.45c-.48.13-.77.62-.64,1.1.13.48.61.77,1.09.64l8.08-2.13v.02l2.47-.65v-.02l13.25-3.49v.02l2.55-.67v-.02l8.16-2.15c.48-.13.76-.62.64-1.1Zm-24.6,5.55v-1.13c0-.19.02-.38.02-.57,0-.35.18-.57.51-.68.14-.05.28-.1.42-.14,3.99-1.14,7.98-2.27,11.98-3.4.1-.02.2-.05.32-.08v2.52l-13.25,3.48Z"/>
    <path class="cls-1" d="m25.1,12.7v3.46c-.06,0-.08,0-.1,0-.18-.07-.35-.14-.53-.22-1.17-.49-2.38-.57-3.58-.2-2.86.88-4.36,3.76-3.48,6.59.64,2.06,2.71,3.57,4.86,3.59,2.97.02,5.43-2.22,5.41-5.35-.02-2.84-.02-5.69-.02-8.54l-2.56.68Z"/>
    <path class="cls-1" d="m11.87,16.18l-2.49.65v3.9c-.26-.1-.49-.2-.71-.29-1.02-.38-2.08-.57-3.15-.31-3.31.8-5.12,4.32-3.56,7.44,1.61,3.22,6.1,3.84,8.52,1.18.98-1.08,1.4-2.34,1.4-3.79-.02-2.92-.02-5.85,0-8.78Z"/>
  </g>
</svg>