<?xml version="1.0" encoding="UTF-8"?>
<svg id="Layer_2" data-name="Layer 2" xmlns="http://www.w3.org/2000/svg" viewBox="0 0 36.5 31">
  <defs>
    <style>
      .cls-1, .cls-2 {
        fill: #859fcc;
      }

      .cls-2 {
        opacity: 0;
      }
    </style>
  </defs>
  <g id="Layer_2-2" data-name="Layer 2">
    <rect class="cls-2" width="36.5" height="31"/>
    <path class="cls-1" d="m25.13,16.2V7.5c-.13.03-.22.06-.32.08-4,1.13-8,2.25-12.01,3.37-.14.04-.28.1-.42.14-.33.11-.5.33-.51.67,0,.19-.02.37-.02.56,0,4.21,0,8.42,0,12.64,0,1.44-.42,2.7-1.39,3.77-2.42,2.66-6.9,2.03-8.5-1.17-1.55-3.12.26-6.62,3.55-7.41,1.06-.25,2.12-.06,3.14.31.22.09.45.17.71.29V6.85q0-1.03.99-1.32c5.56-1.58,11.12-3.17,16.68-4.74.19-.06.38-.09.61-.14.02.26.04.49.04.71,0,6.41-.02,12.83.02,19.24.02,3.13-2.43,5.35-5.39,5.33-2.14-.02-4.19-1.52-4.84-3.57-.88-2.82.62-5.7,3.46-6.56,1.2-.36,2.4-.29,3.57.2.18.07.35.14.53.21.02,0,.05,0,.1,0Z"/>
  </g>
</svg>